<svg id="Layer_1" data-name="Layer 1" xmlns="http://www.w3.org/2000/svg" viewBox="0 0 96 132"><defs><style>.cls-1{fill:#a1e490;}</style></defs><path class="cls-1" d="M536.9,526.62c-.06-1.56.26-2,1.47-2.47.79-.32,1.87-.13,2.35-1.28-1.13-.15-1.25-.91-1.28-1.86a35.42,35.42,0,0,0-.42-4.61,2.36,2.36,0,0,0-1-1.44,77.54,77.54,0,0,1-13.27-11.39c-1.49-1.55-3-3-4.64-4.49A86.85,86.85,0,0,1,506.58,483c-2.8-4.19-5.4-8.51-8-12.82a1.34,1.34,0,0,0-1.83-.74c-2.56.69-5.14,1.34-7.73,1.87a38,38,0,0,1-4,.36,2.19,2.19,0,0,0-1.14.38c.34.2.72.59,1,.54.72-.12.83.27,1.05.77.85,1.92,1.76,3.82,2.65,5.73.4.88.91,1.72,1.24,2.62a3.26,3.26,0,0,0,2.26,2.08,11.51,11.51,0,0,1,2.88,1.52,7,7,0,0,1,3.12,4.63,2.07,2.07,0,0,0,.32.71,1.83,1.83,0,0,0,.58.53c.87.43.83,1,.44,1.64-.31.47-.64.93-1,1.37,1.14,1.41,2.87,1.82,4.45,2.52a5.16,5.16,0,0,1,1.81,1.25,2.66,2.66,0,0,1,.27,1.55,1.49,1.49,0,0,1-.43,1l-1.91,2.5a5.19,5.19,0,0,0-2.67,2.62c-1.11,3.1-3.64,4.86-5.93,6.83a23.12,23.12,0,0,1-4.35,2.66c-.48.25-1.41.39-1.71.11a2.29,2.29,0,0,1-.86-2.42,4.74,4.74,0,0,1,.67-1.23,16.9,16.9,0,0,1,1.21-1.5,5,5,0,0,0,.88-5.19,6.33,6.33,0,0,1-.15-2.22,40.74,40.74,0,0,0,.32-4.91,5.26,5.26,0,0,0-1.29-2.66,125.92,125.92,0,0,0-13.45-15,63.26,63.26,0,0,1-5.29-5.68c-2.6-3-2-6.48.83-8.91a72.12,72.12,0,0,1,7.58-5.5c3.82-2.49,7.74-4.83,11.72-7.29-.78-1.08-1.66-2.38-2.62-3.61-1.35-1.72-2.77-3.38-4.12-5.09a1,1,0,0,0-1.59-.25c-4.54,3.15-9.65,3.42-14.89,2.83a7,7,0,0,1-3.91-1.72,3.73,3.73,0,0,0-1.45-.56,1.23,1.23,0,0,1-1-1c-.19-.65-.94-1.14-1.38-1.74a5,5,0,0,1-.68-1.29c-.26-.71.33-1.58-.45-2.22-.12-.1,0-.6.1-.85.43-.91,3.14-1.82,4-1.26a30.14,30.14,0,0,1,3.19,2.43c1,.87,1.87,1.87,2.82,2.8s3.43.45,4.14-.66c1.54-2.43,1.3-4.81.2-7.33-1.17-2.71-2.18-5.49-3.2-8.26-.55-1.51.05-3,.31-4.47.18-1,.39-1.91.64-2.86.16-.63-.09-.9-.68-.91a11,11,0,0,0-2,0c-1.65.25-2.3,0-3.1-1.5a.86.86,0,0,0-.32-.36c-1.21-.65-1.22-.65-.68-2.14-.79,0-1.33-.35-1.28-1.27,0-.13-.63-.46-.93-.41-.8.13-1.08-.21-1.05-.91s.12-1.27.2-1.9a2.45,2.45,0,0,0-.39-2c-.52-.74-.31-2-.31-3a3.54,3.54,0,0,1,.4-1.46c.31-.71.45-1.28-.27-1.88-.22-.18-.16-.78-.1-1.16a1.53,1.53,0,0,1,.48-.76c1.76-1.54,3.39-3.37,6-3.35,1.9,0,3.81.05,5.71.21a4.88,4.88,0,0,1,1.63.84c.11.06.16.23.27.29,2.56,1.61,3,4.2,3.2,6.89,0,.23.06.47.08.7.05.89.09,1.79.13,2.6,1,1,2.06,2.08,3.26,3.29.73,0,1.75.17,2.77.15a12.73,12.73,0,0,0,2.11-.35c.21,0,.38-.19.57-.18,1.76.08,3.54.09,5.29.3,1.28.16,2.51.69,3.79.86,1.51.2,3.09,0,4.58.3,3.36.65,6.67,1.49,10,2.28.64.15.84.66.88,1.3a85.38,85.38,0,0,1-1.52,21.58,6.12,6.12,0,0,0,.32,3.2,17.75,17.75,0,0,0,3,5.57,7.2,7.2,0,0,1,.86,1.76,5.08,5.08,0,0,0,.28.75c1,1.35,1,1.8-.14,3.05a17.18,17.18,0,0,1,2.13,9.23c-.08,1.53-.26,3.07-.2,4.6a10.15,10.15,0,0,0,.65,2.73c1,3,2.06,6,3,9A27.81,27.81,0,0,0,524,484.5c1.91,2.44,4.33,4.13,6.69,6,2.08,1.68,3.66,4,5.48,6,.91,1,1.85,2,2.75,3,.6.69,1.12,1.46,1.74,2.15a33.7,33.7,0,0,0,2.42,2.51c1.47,1.38,3.22,2.53,4.39,4.12a3.6,3.6,0,0,0,2.26,1.32c1,.36,2.07.78,3.12,1.13a1.65,1.65,0,0,1,1.12,1.9c0,.52,0,1,0,1.62l-.81.16a1.34,1.34,0,0,1,.11.14c-.29.29-.72.54-.85.9a3.73,3.73,0,0,0,.08,1.27c-.85,0-.85,0-.86.81-1.76.93-2.24,2.76-3.1,4.3-.51.9-.9,1.87-1.4,2.77a3.68,3.68,0,0,1-3.5,2ZM498.18,420.75l6.18,10a1.23,1.23,0,0,0,.32-.79c.48-4.1-1.73-7.57-2.73-11.32,0-.05-.1-.08-.22-.18-.93.51-2.45.16-2.67,1.85C499,420.45,498.58,420.55,498.18,420.75Z" transform="translate(-457.96 -394.62)"/></svg>