<svg id="Layer_1" data-name="Layer 1" xmlns="http://www.w3.org/2000/svg" viewBox="0 0 157 132"><defs><style>.cls-1{fill:#a1e490;}</style></defs><path class="cls-1" d="M577.68,504.73c-6.4-3.57-12.51-6.9-18.56-10.36-7.07-4-14.08-8.21-21.14-12.25a20.26,20.26,0,0,0-3.49-1.21,6.58,6.58,0,0,0-.41-2.35,5.06,5.06,0,0,0-2.2-2.12,29.44,29.44,0,0,0-4.48-1.18c-.12-1.14.05-2.15-.34-2.88a12,12,0,0,0-8.46-6.63c-.61-.12-1.44.45-2.07.85-.39.24-.59.78-1,1.29l-16.86-12.58a17.87,17.87,0,0,0,2.43-.25c2.32-.51,3.32-2.6,1.84-4.41-1.93-2.35-3.18-4.49-3.1-7.82.09-3.73-4.49-7.37-8.88-8.21-3.73-.73-7.35,1-9.55,4.66-.4.65-.74,1.32-1.15,2.05a9.46,9.46,0,0,0-7.27-1.05A12,12,0,0,0,463.4,450c-1.19,5.4-2.18,10.85-3.2,16.29-.27,1.46-.28,3-.48,4.45-.36,2.62-.69,5.23-1.17,7.82-.34,1.78-1.25,3.5-1.34,5.27-.18,4-.11,8.07,0,12.12s.94,7.88,4.31,10.7a2.87,2.87,0,0,1,.62.92,2.66,2.66,0,0,1,.2,1.08c-.25,4.35-.56,8.7-1,13-.27,2.78-.76,5.53-1.21,8.29a2.43,2.43,0,0,1-2.74,2.23c-3.92-.39-6.9,1.52-9.88,3.56-2.52,1.73-5,3.49-7.61,5.12-1.69,1.07-3.63,1.76-5.27,2.89a7.71,7.71,0,0,1-5.51,1.45,51,51,0,0,0-5.65-.37,2.18,2.18,0,0,0-2.42,2.45,23.8,23.8,0,0,0,.34,4.66c.82,3.55,1.95,7,2.74,10.56.86,3.84,3.2,4.13,6.54,2.9a1.79,1.79,0,0,0,1.21-2.31c-.44-2.3.6-3.78,2.79-4.56,8-2.82,15.94-5.73,23.93-8.53,2-.71,4.13-1.13,6.2-1.71,2.25-.62,4.7-.89,6.69-2a86,86,0,0,0,9.71-6.55,3.51,3.51,0,0,0,1.33-2.89,4.11,4.11,0,0,0-2.54-2.23,22.78,22.78,0,0,0-5-.39l6.81-17.81c3.85,2.1,7.83,4.16,11.7,6.44,2.93,1.72,3.63,4,3.08,7.43a8.3,8.3,0,0,0,.44,4.1c1.22,3.15,2.74,6.18,4.09,9.29a24.22,24.22,0,0,1,1,3.35c.43,1.61.56,3.37,1.31,4.8a7.63,7.63,0,0,1,1,3.33,7.71,7.71,0,0,1-.6,3.42,28.76,28.76,0,0,0-1.47,4.64c-.12.62.39,1.88.83,2,2.31.59,4.78,1.52,7,1.17a38.76,38.76,0,0,1,7.54,0,93.27,93.27,0,0,0,11.09-.23,3.31,3.31,0,0,0,2.38-2.07,4.37,4.37,0,0,0-1.12-3.25,4,4,0,0,0-1.34-.91,4.1,4.1,0,0,0-1.59-.31c-3.58.23-5.48-2.6-6.76-4.69-1.81-3-2.35-6.83-3.13-10.36-1.46-6.47-2.77-13-4-19.48a17.84,17.84,0,0,1,.16-4c.07-1.59.47-3.27.09-4.74-.51-1.91-1.69-3.64-2.51-5.47a52.15,52.15,0,0,1-2.78-6.62c-.7-2.42-1.94-3.2-4.15-1.91-1.28.74-2.45,1.68-3.8,2.63-.94-1.07-2.78-2.58-3.82-4.51a8.87,8.87,0,0,0-2.95-3.45c-1.8-1.22-3.52-2.57-5.6-4.1,3.95-2.31,2.82-5.87,2.74-9.42a8.18,8.18,0,0,1,2.68.65c3.28,2.4,7.16,2.23,10.84,2.38,3.42.15,6.87-.57,10.31-.75a5.61,5.61,0,0,1,2.74.78c2.05,1.11,3.92,2.56,6,3.52a4.52,4.52,0,0,0,5.09-.78,3.37,3.37,0,0,1,3.11-.36c6.8,4.23,13.53,8.6,20.21,13a96.85,96.85,0,0,0,19.11,10.19c1.63.62,2.83.39,3.76-.88,1.15-1.57,2.12-3.3,3.18-5C578.52,505.17,577.68,504.73,577.68,504.73Zm-77.86-28a2.26,2.26,0,0,1-.87-.48,2.33,2.33,0,0,1-.57-.82,5.52,5.52,0,0,0-4.21-3.67c-1.74-.47-3.25-1.1-4-3-.28-.73-1.29-1.24-2.06-1.69-2.85-1.68-3.5-3.24-2.61-6.84a13.39,13.39,0,0,1,2.46,1.09c5.41,3.86,11.53,6.32,17.68,8.61,3.26,1.21,5.23,3.71,7.57,5.88.59.55.67,1.62,1.09,2.74C509.33,477.94,504.57,477.41,499.82,476.75Z" transform="translate(-421.04 -434.46)"/></svg>