<?xml version="1.0" encoding="utf-8"?>
<!-- Generator: Adobe Illustrator 26.0.1, SVG Export Plug-In . SVG Version: 6.00 Build 0)  -->
<svg version="1.1" id="Layer_1" xmlns="http://www.w3.org/2000/svg" xmlns:xlink="http://www.w3.org/1999/xlink" x="0px" y="0px"
	 viewBox="0 0 6918.1 813.2" style="enable-background:new 0 0 6918.1 813.2;" xml:space="preserve">
<path d="M1121.6,255.9c31.8-55.7,75.2-99.1,130.2-130.2c55-31.1,116.7-46.7,185.1-46.7c80,0,150.1,20.5,210.2,61.5
	s102.2,97.8,126.1,170.2h-165.1c-16.4-34.2-39.5-59.8-69.2-76.9s-64.1-25.6-103.1-25.6c-41.7,0-78.8,9.7-111.3,29.2
	s-57.8,47-75.9,82.5c-18.1,35.6-27.2,77.3-27.2,125.1c0,47.2,9.1,88.7,27.2,124.6c18.1,35.9,43.4,63.6,75.9,83.1
	c32.5,19.5,69.6,29.2,111.3,29.2c39,0,73.3-8.7,103.1-26.2s52.8-43.2,69.2-77.4h165.1c-23.9,73.2-65.8,130.1-125.6,170.7
	c-59.8,40.7-130.1,61-210.7,61c-68.4,0-130.1-15.6-185.1-46.7s-98.4-74.3-130.2-129.7c-31.8-55.4-47.7-118.3-47.7-188.7
	C1073.9,374.6,1089.8,311.6,1121.6,255.9z"/>
<path d="M2082.2,253.3c29.7-17.1,63.7-25.6,102-25.6v150.7h-37.9c-45.1,0-79.1,10.6-102,31.8c-22.9,21.2-34.3,58.1-34.4,110.8v283
	h-143.6V235.9h143.6v88.2C2028.4,294,2052.5,270.4,2082.2,253.3z"/>
<path d="M2273.4,144.1c-16.8-16.1-25.1-36.1-25.1-60s8.4-43.9,25.1-60C2290.2,8,2311.2,0,2336.5,0c25.3,0,46.3,8,63.1,24.1
	c16.7,16.1,25.1,36.1,25.1,60s-8.4,43.9-25.1,60c-16.8,16.1-37.8,24.1-63.1,24.1C2311.2,168.2,2290.2,160.1,2273.4,144.1z
	 M2407.2,235.9V804h-143.6V235.9H2407.2z"/>
<path d="M2497.7,365.6c23.9-44.1,57.1-78.3,99.5-102.5c42.4-24.3,90.9-36.4,145.6-36.4c70.4,0,128.7,17.6,174.8,52.8
	c46.2,35.2,77.1,84.6,92.8,148.2h-154.9c-8.2-24.6-22-43.9-41.5-57.9c-19.5-14-43.6-21-72.3-21c-41,0-73.5,14.9-97.4,44.6
	c-23.9,29.7-35.9,72-35.9,126.7c0,54,12,95.9,35.9,125.6c23.9,29.8,56.4,44.6,97.4,44.6c58.1,0,96-26,113.8-77.9h154.9
	c-15.7,61.5-46.8,110.4-93.3,146.6c-46.5,36.2-104.6,54.3-174.3,54.3c-54.7,0-103.3-12.1-145.6-36.4
	c-42.4-24.3-75.5-58.5-99.5-102.6c-23.9-44.1-35.9-95.5-35.9-154.3C2461.9,461.1,2473.8,409.7,2497.7,365.6z"/>
<path d="M3422.5,804l-192.8-242v242h-143.6V45.1h143.6v431.7l190.8-241h186.6l-250.2,285.1l252.3,283L3422.5,804z"/>
<path d="M3643.4,365.1c22.9-44.4,54.2-78.6,93.8-102.5c39.7-23.9,83.8-35.9,132.3-35.9c36.6-0.1,72.7,8.2,105.6,24.1
	c33.5,16.1,60.2,37.4,80,64.1V45.1h145.6V804h-145.6v-84.1c-17.8,28-42.7,50.6-74.9,67.7c-32.1,17.1-69.4,25.6-111.7,25.6
	c-47.9,0-91.6-12.3-131.3-36.9s-70.9-59.3-93.8-104.1c-22.9-44.8-34.4-96.2-34.4-154.3C3609.1,460.4,3620.5,409.5,3643.4,365.1z
	 M4035.7,430.2c-13.7-25-32.1-44.1-55.4-57.4c-22.7-13.2-48.6-20.1-74.9-20c-25.9-0.2-51.4,6.5-73.9,19.5
	c-22.6,13-40.8,32-54.9,56.9c-14,24.9-21,54.5-21,88.7c0,34.2,7,64.1,21,89.7s32.5,45.3,55.4,59c22.1,13.5,47.5,20.6,73.3,20.5
	c26.3,0.1,52.1-6.8,74.9-20c23.2-13.3,41.7-32.5,55.4-57.4c13.7-24.9,20.5-54.9,20.5-89.7C4056.2,485.1,4049.4,455.1,4035.7,430.2
	L4035.7,430.2z"/>
<path d="M4425.9,776.8c-43.8-24.3-78.1-58.6-103.1-103.1s-37.4-95.7-37.4-153.8c0-58.1,12.8-109.4,38.5-153.8
	c25.6-44.4,60.7-78.8,105.1-103.1c44.4-24.3,94-36.4,148.7-36.4s104.3,12.1,148.7,36.4c44.4,24.3,79.5,58.6,105.1,103.1
	c25.6,44.4,38.5,95.7,38.5,153.8c0,58.1-13.2,109.4-39.5,153.8c-26.3,44.4-61.9,78.8-106.6,103.1c-44.8,24.3-94.9,36.4-150.2,36.4
	C4518.8,813.2,4469.6,801.1,4425.9,776.8z M4646.9,669.2c22.9-12.7,41.2-31.6,54.9-56.9c13.7-25.3,20.5-56,20.5-92.3
	c0-54-14.2-95.5-42.6-124.6s-63.1-43.6-104.1-43.6c-41,0-75.4,14.5-103.1,43.6c-27.7,29.1-41.5,70.6-41.5,124.6
	c0,54,13.5,95.5,40.5,124.6c27,29.1,61,43.6,102,43.6C4599.2,688.2,4624.4,681.7,4646.9,669.2L4646.9,669.2z"/>
<path d="M5161.4,253.3c29.7-17.1,63.7-25.6,102-25.6v150.7h-38c-45.1,0-79.1,10.6-102,31.8s-34.3,58.1-34.4,110.8v283h-143.5V235.9
	h143.6v88.2C5107.6,294,5131.6,270.4,5161.4,253.3z"/>
<path d="M5444.4,776.8c-43.8-24.3-78.1-58.6-103.1-103.1c-24.9-44.4-37.4-95.7-37.4-153.8c0-58.1,12.8-109.4,38.5-153.8
	c25.6-44.4,60.7-78.8,105.1-103.1c44.4-24.3,94-36.4,148.7-36.4s104.3,12.1,148.7,36.4c44.4,24.3,79.5,58.6,105.1,103.1
	c25.6,44.4,38.5,95.7,38.5,153.8c0,58.1-13.2,109.4-39.5,153.8c-26.3,44.4-61.9,78.8-106.6,103.1c-44.8,24.3-94.9,36.4-150.2,36.4
	C5537.4,813.2,5488.2,801.1,5444.4,776.8z M5665.4,669.2c22.9-12.7,41.2-31.6,54.9-56.9c13.7-25.3,20.5-56,20.5-92.3
	c0-54-14.2-95.5-42.6-124.6c-28.4-29.1-63.1-43.6-104.1-43.6c-41,0-75.4,14.5-103.1,43.6s-41.5,70.6-41.5,124.6
	c0,54,13.5,95.5,40.5,124.6s61,43.6,102,43.6C5617.7,688.2,5643,681.7,5665.4,669.2L5665.4,669.2z"/>
<path d="M147.4,409.9c23-24.8,47-48.8,72.1-71.5s51.1-44.5,78-65.2l20.4-15.2c1.7-1.3,3.4-2.6,5.1-3.8l5.2-3.7l10.4-7.3L349,236
	l5.2-3.6l5.3-3.5l21.3-13.9c3.5-2.3,7.1-4.7,10.7-6.8l10.8-6.6l10.9-6.7c3.6-2.2,7.2-4.4,10.9-6.5c14.8-8.3,29.4-16.9,44.5-24.6
	l11.2-5.9l5.6-3l5.7-2.8l22.8-11.2c3.8-1.9,7.7-3.6,11.5-5.4l11.6-5.2l11.6-5.2c3.8-1.8,7.8-3.3,11.7-5c7.8-3.3,15.6-6.6,23.4-9.8
	l23.7-9.1l5.9-2.2c2-0.8,4-1.4,6-2.2l11.9-4.3l11.3-4c-101.6-75.6-237.3-102-366.6-59.2C65,99.1-49.3,326.6,20.5,537.5
	c2.6,7.9,5.4,15.6,8.5,23.2c16.7-25.1,34.3-49.6,52.8-73.5C102.5,460.5,124.4,434.8,147.4,409.9z"/>
<path d="M211.7,617.5c20.6-26.8,42.4-52.8,65.4-77.8s47-49,72-71.9l19-17c6.4-5.6,12.9-11,19.4-16.5l4.9-4.1l5-4l9.9-8l5-4l2.5-2
	l2.5-1.9l10.1-7.7l20.3-15.4c6.9-5,13.9-9.8,20.8-14.7c13.8-10,28.2-19,42.3-28.4l5.3-3.5c1.8-1.1,3.6-2.2,5.4-3.3l10.9-6.6
	l10.9-6.6c3.7-2.2,7.2-4.5,11-6.5l22.2-12.5l5.6-3.1l2.8-1.6l2.8-1.5l11.3-5.9c30-16,60.9-30.1,92.1-43.4l23.6-9.6l5.9-2.4l6-2.2
	l11.9-4.4c6.5-2.5,13.1-4.9,19.7-7.2c-18.7-35.6-42.6-68.2-71.1-96.6c-4.9,1.8-9.8,3.7-14.6,5.6l-5.7,2.2l-3,1L661,137l-11.3,4.6
	l-11.3,4.6c-1.9,0.8-3.8,1.5-5.6,2.3l-5.6,2.4l-22.3,9.7l-22.1,10.2l-5.5,2.5c-1.8,0.8-3.7,1.7-5.5,2.6l-10.9,5.4l-10.9,5.3
	c-3.6,1.8-7.3,3.5-10.8,5.5l-21.6,11.2l-5.4,2.8l-5.3,3l-10.6,5.9l-10.6,5.8c-1.8,1-3.6,1.9-5.3,3l-5.2,3.1l-20.9,12.3
	c-3.5,2-6.9,4.2-10.4,6.3l-10.3,6.4c-6.8,4.3-13.8,8.5-20.5,13l-20.3,13.4l-5.1,3.4l-5,3.5l-9.9,7l-10,7l-5,3.5
	c-1.7,1.2-3.3,2.4-4.9,3.6l-19.5,14.4c-25.8,19.5-51,39.9-75.6,61c-6.1,5.3-12.2,10.6-18.3,16l-18,16.3l-17.7,16.7
	c-3,2.8-5.9,5.6-8.8,8.5l-8.7,8.5c-23.1,22.8-45.4,46.4-67,70.7c-24.4,27.4-47.8,55.7-70.2,85c23.7,43.7,55.4,82.6,93.5,114.7
	c3.6-5.9,7.3-11.7,11-17.6C171.7,672,191.1,644.4,211.7,617.5z"/>
<path d="M783.9,284.5c-1.4-4.2-2.9-8.4-4.4-12.6l-4.5,1.8l-2.8,1.2l-2.8,1.2l-11.2,4.7l-11.2,4.7l-5.6,2.3l-5.6,2.5l-22.2,10
	c-3.7,1.6-7.4,3.4-11,5.2l-11,5.3l-11,5.3l-2.7,1.3l-2.7,1.4l-5.4,2.8l-21.7,11.1l-2.7,1.4l-2.7,1.5l-5.3,2.9l-10.7,5.8l-10.7,5.8
	l-2.7,1.5l-2.6,1.5l-5.3,3.1l-21,12.2c-3.5,2-6.9,4.2-10.4,6.3l-10.3,6.4l-10.3,6.4c-1.7,1.1-3.5,2.1-5.2,3.2l-5.1,3.3
	c-13.5,9-27.2,17.7-40.3,27.2c-6.6,4.7-13.3,9.3-19.9,14l-19.5,14.6c-26,19.4-51.2,39.8-75.8,61c-49.1,42.7-95.2,88.7-138.2,137.6
	c-26.4,30.1-51.6,61.2-75.7,93.5c100.2,69.1,230.5,92.1,355,50.8C739.5,722.8,853.8,495.3,783.9,284.5z"/>
</svg>
