<svg id="Layer_1" data-name="Layer 1" xmlns="http://www.w3.org/2000/svg" viewBox="0 0 532.4 532.4"><defs></defs><path  d="M1676.73,278.55a266.2,266.2,0,1,0,78,188.23A264.46,264.46,0,0,0,1676.73,278.55ZM1488.5,713c-135.76,0-246.2-110.45-246.2-246.21s110.44-246.2,246.2-246.2S1734.7,331,1734.7,466.78,1624.25,713,1488.5,713Z" transform="translate(-1222.3 -200.58)"/><path  d="M1530.73,448.71l-19-2.76a9,9,0,0,1-6.75-4.9l-8.48-17.19a9,9,0,0,0-16.08,0L1472,441.05a9,9,0,0,1-6.75,4.9l-19,2.76a9,9,0,0,0-5,15.29L1455,477.38a9,9,0,0,1,2.58,7.94l-3.24,18.88a9,9,0,0,0,13,9.46l17-8.92a8.94,8.94,0,0,1,8.35,0l17,8.92a9,9,0,0,0,13-9.46l-3.24-18.88a9,9,0,0,1,2.58-7.94L1535.7,464A9,9,0,0,0,1530.73,448.71Z" transform="translate(-1222.3 -200.58)"/></svg>