<svg id="Layer_1" data-name="Layer 1" xmlns="http://www.w3.org/2000/svg" viewBox="0 0 532.4 532.4"><defs></defs><path  d="M1527.47,839.38a266.21,266.21,0,1,1,188.23-78A264.47,264.47,0,0,1,1527.47,839.38Zm0-512.4c-135.76,0-246.21,110.44-246.21,246.2s110.45,246.2,246.21,246.2,246.2-110.45,246.2-246.2S1663.22,327,1527.47,327Z" transform="translate(-1261.26 -306.98)"/><path  d="M1409.43,530.26l8.48,17.18a9,9,0,0,0,6.75,4.91l19,2.75a9,9,0,0,1,5,15.3l-13.73,13.37a9,9,0,0,0-2.58,7.94l3.24,18.89a9,9,0,0,1-13,9.45l-17-8.92a9,9,0,0,0-8.34,0l-17,8.92a9,9,0,0,1-13-9.45l3.24-18.89a9,9,0,0,0-2.58-7.94l-13.72-13.37a9,9,0,0,1,5-15.3l19-2.75a9,9,0,0,0,6.75-4.91l8.48-17.18A9,9,0,0,1,1409.43,530.26Z" transform="translate(-1261.26 -306.98)"/><path  d="M1535.51,530.26l8.48,17.18a9,9,0,0,0,6.75,4.91l19,2.75a9,9,0,0,1,5,15.3L1561,583.77a9,9,0,0,0-2.58,7.94l3.24,18.89a9,9,0,0,1-13,9.45l-17-8.92a9,9,0,0,0-8.35,0l-17,8.92a9,9,0,0,1-13-9.45l3.24-18.89a9,9,0,0,0-2.58-7.94l-13.72-13.37a9,9,0,0,1,5-15.3l19-2.75a9,9,0,0,0,6.75-4.91l8.48-17.18A9,9,0,0,1,1535.51,530.26Z" transform="translate(-1261.26 -306.98)"/><path  d="M1661.58,530.26l8.48,17.18a9,9,0,0,0,6.76,4.91l19,2.75a9,9,0,0,1,5,15.3L1687,583.77a9,9,0,0,0-2.58,7.94l3.24,18.89a9,9,0,0,1-13,9.45l-17-8.92a9,9,0,0,0-8.34,0l-17,8.92a9,9,0,0,1-13-9.45l3.24-18.89a9,9,0,0,0-2.58-7.94l-13.72-13.37a9,9,0,0,1,5-15.3l19-2.75a9,9,0,0,0,6.75-4.91l8.48-17.18A9,9,0,0,1,1661.58,530.26Z" transform="translate(-1261.26 -306.98)"/></svg>