<svg id="Layer_1" data-name="Layer 1" xmlns="http://www.w3.org/2000/svg" xmlns:xlink="http://www.w3.org/1999/xlink" viewBox="0 0 20 15"><defs><style>.cls-1{fill:none;}.cls-2{clip-path:url(#clip-path);}.cls-3{fill:#535353;}</style><clipPath id="clip-path" transform="translate(-429.03 -639.75)"><rect class="cls-1" x="429.03" y="639.75" width="20" height="15"/></clipPath></defs><g class="cls-2"><path class="cls-3" d="M446.63,639.75a2.52,2.52,0,0,0-1.71.66,2.16,2.16,0,0,0-.7,1.58v10.52a2.14,2.14,0,0,0,.18.86,2.32,2.32,0,0,0,.52.73,2.52,2.52,0,0,0,1.71.65,2.46,2.46,0,0,0,.92-.17,2.61,2.61,0,0,0,.78-.48,2.32,2.32,0,0,0,.52-.73,2.14,2.14,0,0,0,.18-.86V642a2.16,2.16,0,0,0-.7-1.58A2.51,2.51,0,0,0,446.63,639.75Zm-4.95,9.44-9,4.86A2.42,2.42,0,0,1,429,652.1v-9.7a2.41,2.41,0,0,1,3.62-1.94l9,4.85A2.17,2.17,0,0,1,441.68,649.19Z" transform="translate(-429.03 -639.75)"/><path class="cls-3" d="M446.63,639.75a2.52,2.52,0,0,0-1.71.66,2.16,2.16,0,0,0-.7,1.58v10.52a2.14,2.14,0,0,0,.18.86,2.32,2.32,0,0,0,.52.73,2.52,2.52,0,0,0,1.71.65,2.46,2.46,0,0,0,.92-.17,2.61,2.61,0,0,0,.78-.48,2.32,2.32,0,0,0,.52-.73,2.14,2.14,0,0,0,.18-.86V642a2.16,2.16,0,0,0-.7-1.58A2.51,2.51,0,0,0,446.63,639.75Zm-4.95,9.44-9,4.86A2.42,2.42,0,0,1,429,652.1v-9.7a2.41,2.41,0,0,1,3.62-1.94l9,4.85A2.17,2.17,0,0,1,441.68,649.19Z" transform="translate(-429.03 -639.75)"/></g></svg>