<svg id="Layer_1" data-name="Layer 1" xmlns="http://www.w3.org/2000/svg" viewBox="0 0 572.82 572.83"><defs><style>.cls-1{fill:#535353;}</style></defs><path  d="M213.31,500.32C213.26,342,341.51,213.78,499.89,213.83,658,213.88,786,341.94,786.13,500.17S657.79,786.85,499.55,786.66,213.36,658.48,213.31,500.32Zm225.54-17.68a40.59,40.59,0,0,1,21-11.59c8.32-1.89,10.94-.33,10.69,8.33A144.74,144.74,0,0,1,468,504.16c-6,29.52-13,58.85-18.72,88.43A340.41,340.41,0,0,0,443.07,642c-.77,17.8,7.2,31.92,24.66,38.43,46.24,17.26,88.26-2,106.86-53.09l-16-11.51a51,51,0,0,1-2.31,5.41c-5.11,8.91-9.8,18.13-15.72,26.48-2.68,3.78-7.58,6.42-12,8.45-5.68,2.6-9.25,1-10.65-5-2-8.53-4.58-17.4-4-25.94,1-15.53,3.65-31,6.53-46.36,4.91-26.17,11.43-52.06,15.58-78.34,3.61-22.82-.94-44.43-16.28-62.88-12.72-15.31-29.68-19.92-47.87-11.78-19.87,8.9-33.48,25.19-47.57,41.21Zm20.33-126.81c1.88,7,2.92,14.39,5.83,20.94,5.57,12.52,15.52,19.74,29.62,20.17,22,.67,40.08-14.2,43.91-35.85,3.48-19.71-5.13-37-22-44.14C488.7,305.14,460.43,324.53,459.18,355.83Z" transform="translate(-213.31 -213.83)"/></svg>