<svg id="Layer_1" data-name="Layer 1" xmlns="http://www.w3.org/2000/svg" viewBox="0 0 562.07 562.07"><defs><style>.cls-1{fill:#535353;}</style></defs><path  d="M499.76,219.28c-155.21,0-281,125.82-281,281s125.83,281,281,281,281-125.82,281-281S655,219.28,499.76,219.28Zm1.15,126.11a90.1,90.1,0,0,1,89.38,90.91c-.45,49.42-41.14,89.7-90.21,89.31a90.09,90.09,0,0,1-90-91.19C410.49,385,451.2,345,500.91,345.39ZM334,655.24c1.49-9.63,2.09-19.07,4.46-28,13.84-52.37,58.48-86.45,112.67-86.5q49.25,0,98.5,0c58.54,0,106.53,41.78,114.65,99.77.66,4.76.8,9.59,1.21,14.77Z" transform="translate(-218.72 -219.28)"/></svg>