<svg id="Layer_1" data-name="Layer 1" xmlns="http://www.w3.org/2000/svg" viewBox="0 0 372.11 740.42"><defs><style>.cls-1{fill:#e3e1b2;}.cls-2{fill:#fff;}</style></defs><rect class="cls-1" width="372.11" height="740.42"/><path class="cls-2" d="M642.29,750.48H313.73v6.06H352V870.46h5.19V835.29H642.29v35h5.2V756.54h37.83v-6.06h-43ZM357.16,829.23V756.54h45.57v72.69Zm50.76,0V756.54H595.11v72.69Zm234.37,0h-42V756.54h42Z" transform="translate(-313.7 -130.1)"/><path class="cls-2" d="M647.08,244.4V130.48h-5.19v35.17H356.75v-35h-5.19V244.4H313.73v6.06H685.32V244.4Zm-290.33,0V171.71h42V244.4Zm47.18,0V171.71h187.2V244.4Zm192.39,0V171.71h45.57V244.4Z" transform="translate(-313.7 -130.1)"/></svg>