<svg id="Layer_1" data-name="Layer 1" xmlns="http://www.w3.org/2000/svg" viewBox="0 0 18 18"><defs><style></style></defs><path  d="M437.2,631.25a1.91,1.91,0,0,0-1.2-.74,2,2,0,0,0-1.4.3,1.75,1.75,0,0,0-.76,1.15,1.72,1.72,0,0,0,.3,1.33,4.88,4.88,0,0,1,.83,1.79,4.79,4.79,0,0,1-.7,3.79,4.89,4.89,0,0,1-1.42,1.41,5.51,5.51,0,0,1-1.88.8,5.7,5.7,0,0,1-2.06,0,5.57,5.57,0,0,1-1.91-.71,5.25,5.25,0,0,1-1.49-1.36,5,5,0,0,1-.83-1.79,4.8,4.8,0,0,1,0-2,5,5,0,0,1,.91-2.07l.56.76a1.42,1.42,0,0,0,1.25.56,1.36,1.36,0,0,0,.67-.24,1.28,1.28,0,0,0,.46-.52l2.52-5.16a1.21,1.21,0,0,0,.13-.67,1.27,1.27,0,0,0-.25-.64,1.3,1.3,0,0,0-.54-.44,1.44,1.44,0,0,0-.71-.12l-5.95.5a1.45,1.45,0,0,0-.67.23,1.28,1.28,0,0,0-.46.52,1.2,1.2,0,0,0-.12.67,1.26,1.26,0,0,0,.24.64l.66.9a8.36,8.36,0,0,0-2.37,4.46A8,8,0,0,0,421,638a8.39,8.39,0,0,0,1.42,3.06,8.76,8.76,0,0,0,2.53,2.32,9.08,9.08,0,0,0,3.28,1.21,10.42,10.42,0,0,0,1.58.14A9.31,9.31,0,0,0,435,643.2a8.65,8.65,0,0,0,2.44-2.42,8.31,8.31,0,0,0,1.26-3.12,8,8,0,0,0-.07-3.35A8.39,8.39,0,0,0,437.2,631.25Z" transform="translate(-420.83 -626.76)"/></svg>