<svg id="Layer_1" data-name="Layer 1" xmlns="http://www.w3.org/2000/svg" viewBox="0 0 544.48 544.65"><defs><style></style></defs><path  d="M634.55,266.49c-1.88,10.54-4,22-5.94,33.49a85.4,85.4,0,0,0-1.12,9.43c-.38,6.46,1.42,12.11,6.3,16.7,9.47,8.9,19,17.73,28.15,27,6,6.14,13,7.74,21,6,12.85-2.79,25.63-5.94,38.49-8.71,10.65-2.29,17.47.74,22.15,10.53q11.19,23.44,21.5,47.31c4.38,10.17,2.9,16.43-5.63,23.56-7,5.86-14.64,11-22.17,16.21C717.56,461.66,716.34,463.87,717,488c.23,8,.68,16,1.1,24,.44,8.57,4,15.38,11.54,19.84,7.31,4.33,14.7,8.51,22,12.94a137.87,137.87,0,0,1,12.85,8.63c6.6,5.11,9.14,11.77,6.14,19.91-5.94,16.08-11.87,32.16-18,48.16a39.36,39.36,0,0,1-5.14,8.52c-3.28,4.53-7.81,6.81-13.45,5.93-11.35-1.76-22.8-3.15-34-5.72-13.71-3.16-24.66-.46-33.65,11-5.85,7.43-13,13.86-19.51,20.75s-8.39,14.91-6.18,24c2.63,10.85,5.24,21.69,7.74,32.57a59.76,59.76,0,0,1,1,7.92c.71,7.3-2.26,12.89-8.79,15.94-17.18,8.05-34.42,16-51.82,23.52-7.7,3.35-14.92,1.54-20.17-5.18-6.26-8-12.17-16.28-18.07-24.55-13.44-18.81-15.31-19.79-38.58-18.69-8,.37-16,.9-24,1.24-9.41.41-16.54,4.51-21.3,12.69q-5.16,8.85-10.44,17.63c-1.8,3-3.6,6-5.57,8.9-10.43,15.27-14.28,16.79-31.46,10.7-13.8-4.89-27.38-10.39-41-15.86a44,44,0,0,1-9-5.38c-4.41-3.17-6.5-7.61-5.67-13.05,1.84-12,3.82-24,5.74-36,.2-1.32.33-2.64.56-4,1.87-10.54-1-19.17-9.41-26.23s-16.56-15-24.84-22.44c-5.08-4.59-10.91-6-17.62-4.41-13.47,3.09-26.93,6.23-40.49,8.85-11.37,2.19-16.8-.42-21.73-11q-11.24-24.22-21.33-49c-3.86-9.4-2.27-14.91,5.78-21.09q14.07-10.79,28.92-20.55c9.38-6.19,13.84-14.34,13.14-25.64-.72-11.47-1-23-1.28-34.47-.19-8-3.64-13.92-10.51-18.08q-13.25-8-26.27-16.41a113.12,113.12,0,0,1-10.88-8c-5.53-4.6-7.53-10.35-5-17.4,6.2-17.23,12.15-34.55,18.56-51.71,3.14-8.41,10.19-12.93,19.16-12s17.73,2.91,26.6,4.34c5.91.95,11.87,1.68,17.79,2.61,4.78.75,9.1-.33,12.46-3.71,10.8-10.87,21.56-21.78,32.07-32.93,4.32-4.58,4.77-10.59,3.54-16.51-2.16-10.44-4.66-20.81-7-31.21-.79-3.58-1.53-7.17-2.07-10.79-1.54-10.38.17-14.87,9.56-19.6,14.86-7.48,30.06-14.28,45.21-21.17a45,45,0,0,1,9.6-2.65c6.24-1.27,11.58.34,15.48,5.61,7.54,10.17,15.45,20.1,22.43,30.65,6.27,9.48,14.33,13.6,25.62,12.75s22.63-1,33.95-1.31a19.62,19.62,0,0,0,17-9.67c6-9.58,12.08-19.16,18.23-28.68a90.58,90.58,0,0,1,6.74-9.3c4.11-4.87,9.74-7.2,15.69-5.19,18.76,6.32,37.45,12.9,55.9,20.08C632.35,250.9,634.13,258.12,634.55,266.49Zm-20,233.43c.12-64.35-51.6-115.49-116.5-115.77-52.79-.22-113.53,45.73-113.86,115.56-.29,63.15,51.82,115.64,114.88,115.64C572.71,615.34,617.61,551.88,614.59,499.92Z" transform="translate(-227.37 -227.25)"/></svg>